<?xml version="1.0" standalone="no"?>
<!DOCTYPE svg PUBLIC "-//W3C//DTD SVG 20010904//EN"
 "http://www.w3.org/TR/2001/REC-SVG-20010904/DTD/svg10.dtd">
<svg version="1.0" xmlns="http://www.w3.org/2000/svg"
 width="250.000000pt" height="250.000000pt" viewBox="0 0 250.000000 250.000000"
 preserveAspectRatio="xMidYMid meet">
<metadata>
Created by potrace 1.14, written by Peter Selinger 2001-2017
</metadata>
<g transform="translate(0.000000,250.000000) scale(0.100000,-0.100000)"
fill="#000000" stroke="none">
<path d="M1255 2241 c-60 -11 -142 -57 -203 -115 -42 -39 -65 -73 -97 -141
-23 -49 -47 -103 -52 -119 -8 -26 -20 -33 -82 -54 -99 -33 -141 -75 -141 -140
0 -71 80 -223 154 -291 17 -16 24 -31 20 -43 -3 -10 2 -28 10 -40 18 -25 21
-68 6 -68 -5 0 -10 9 -10 20 0 11 -3 20 -7 20 -10 0 -46 -81 -44 -96 1 -6 -10
-36 -24 -65 -14 -30 -25 -67 -24 -84 0 -29 1 -29 17 12 25 61 32 62 25 2 -3
-30 -6 -67 -5 -82 1 -21 -5 -30 -24 -37 -14 -6 -43 -28 -64 -51 l-38 -41 -43
23 c-36 19 -64 24 -154 27 -60 2 -112 8 -115 12 -13 20 -47 12 -82 -19 -32
-30 -36 -38 -30 -70 5 -34 5 -35 -12 -18 -10 9 -24 17 -32 17 -12 0 -14 -49
-14 -320 l0 -320 1070 0 1070 0 0 228 0 227 -65 13 c-35 6 -95 12 -132 12 -38
0 -98 3 -134 6 l-67 7 -6 37 c-3 21 -30 72 -66 124 -33 48 -70 107 -82 131
-12 24 -25 42 -29 39 -16 -9 -22 47 -23 209 l-1 169 34 36 c45 49 113 156 134
212 9 25 17 67 17 94 0 39 -5 53 -28 76 -28 28 -113 60 -159 60 -19 0 -28 10
-44 48 -63 148 -94 199 -163 268 -91 91 -137 106 -261 85z m-195 -558 c0 -14
-3 -23 -7 -20 -3 4 -12 2 -20 -5 -11 -9 -12 -7 -7 8 7 20 24 44 30 44 2 0 4
-12 4 -27z m112 -13 c11 0 30 -12 43 -26 14 -15 25 -23 25 -19 0 4 9 0 20 -10
11 -10 20 -23 20 -29 0 -6 -7 -1 -15 11 -10 14 -22 20 -31 16 -9 -3 -20 0 -25
8 -6 10 -9 10 -9 2 0 -19 -66 -16 -98 4 -15 9 -28 18 -30 19 -1 0 0 8 4 17 6
17 53 27 69 15 5 -4 17 -8 27 -8z m-168 -34 c-26 -74 -60 -86 -45 -16 4 23 15
39 31 47 14 7 26 13 27 13 1 0 -5 -20 -13 -44z m336 -20 c0 -8 -4 -18 -10 -21
-5 -3 -10 3 -10 14 0 12 5 21 10 21 6 0 10 -6 10 -14z m-380 -76 c0 -5 -2 -10
-4 -10 -3 0 -8 5 -11 10 -3 6 -1 10 4 10 6 0 11 -4 11 -10z m330 -77 c-5 -62
-7 -68 -29 -71 -20 -3 -23 -1 -16 15 4 10 10 41 14 68 15 104 39 95 31 -12z
m-200 37 c0 -5 -4 -10 -10 -10 -5 0 -10 5 -10 10 0 6 5 10 10 10 6 0 10 -4 10
-10z m-116 -26 c-4 -21 -2 -25 11 -20 9 3 13 2 10 -4 -3 -6 -1 -10 4 -10 6 0
11 -8 11 -17 0 -15 2 -16 10 -3 7 11 10 8 10 -16 0 -18 8 -38 20 -49 23 -21
22 -54 -3 -79 -9 -10 -22 -26 -27 -37 -6 -10 -20 -19 -30 -19 -23 0 -26 -19
-7 -40 10 -12 9 -12 -5 -1 -13 10 -18 10 -18 2 0 -7 -10 -3 -22 9 -31 28 -36
117 -13 212 17 68 31 97 47 98 4 0 5 -12 2 -26z m106 -8 c-1 -5 4 -13 12 -17
16 -10 -2 -12 -26 -3 -21 8 -21 36 0 32 8 -2 14 -7 14 -12z m-208 -88 c-7 -7
-12 -8 -12 -2 0 14 12 26 19 19 2 -3 -1 -11 -7 -17z m354 -34 c-5 -14 -9 -14
-22 -3 -14 12 -14 14 3 20 23 8 27 4 19 -17z m62 -31 c12 -7 29 -13 37 -13 8
0 15 -4 15 -10 0 -5 -8 -10 -19 -10 -10 0 -24 -7 -31 -15 -7 -8 -17 -12 -24
-8 -6 4 -23 6 -39 4 -39 -4 -43 20 -10 58 22 24 30 29 38 19 6 -7 20 -19 33
-25z m-1 -196 c3 -4 14 -2 24 3 13 8 20 6 28 -7 6 -10 11 -12 11 -5 0 17 20
15 20 -3 0 -12 -14 -15 -69 -15 -77 0 -101 6 -101 25 0 13 74 14 87 2z m-470
-154 c-3 -10 -5 -4 -5 12 0 17 2 24 5 18 2 -7 2 -21 0 -30z m1025 -158 c37
-55 68 -111 70 -125 l3 -25 -92 1 c-51 0 -96 3 -99 7 -3 3 3 18 15 33 11 15
21 39 21 55 0 15 4 29 10 31 5 2 -4 30 -20 63 -16 33 -33 80 -36 105 l-7 45
35 -45 c19 -25 64 -90 100 -145z m-1032 78 c0 -19 -49 -63 -71 -63 -29 0 -31
16 -4 48 26 31 75 41 75 15z m82 -7 c16 -12 15 -14 -4 -30 -38 -33 -106 -58
-126 -47 -16 9 -16 10 3 17 11 4 37 22 58 41 41 37 45 38 69 19z m733 -56 c3
-5 1 -10 -4 -10 -6 0 -11 5 -11 10 0 6 2 10 4 10 3 0 8 -4 11 -10z m-767 -26
c-19 -19 -32 -25 -45 -19 -15 6 -11 10 22 25 53 24 54 24 23 -6z m794 -36
c-15 -15 -24 -6 -16 16 5 12 10 14 17 7 8 -8 8 -14 -1 -23z m98 -28 c0 -5 -10
-15 -22 -21 l-23 -12 20 21 c23 24 25 25 25 12z"/>
<path d="M964 1426 c-10 -8 -16 -18 -12 -21 4 -4 15 0 24 9 21 22 13 30 -12
12z"/>
<path d="M751 954 c0 -11 3 -14 6 -6 3 7 2 16 -1 19 -3 4 -6 -2 -5 -13z"/>
</g>
</svg>
