<svg xmlns="http://www.w3.org/2000/svg" version="1.1" xmlns:xlink="http://www.w3.org/1999/xlink" xmlns:svgjs="http://svgjs.com/svgjs" width="500.000000pt" height="500.000000pt"><svg version="1.0" xmlns="http://www.w3.org/2000/svg" width="500.000000pt" height="500.000000pt" viewBox="0 0 500.000000 500.000000" preserveAspectRatio="xMidYMid meet">
<metadata>
Created by potrace 1.14, written by Peter Selinger 2001-2017
</metadata>
<g transform="translate(0.000000,500.000000) scale(0.100000,-0.100000)" fill="#000000" stroke="none">
<path d="M0 2500 l0 -2500 2500 0 2500 0 0 2500 0 2500 -2500 0 -2500 0 0
-2500z m2432 1426 c40 -8 108 -26 151 -40 l79 -26 91 32 c91 32 95 33 262 32
158 0 176 -2 248 -27 220 -76 360 -237 417 -479 23 -100 21 -108 -32 -108 -16
0 -31 0 -35 0 -5 0 -13 26 -20 58 -37 186 -134 331 -263 397 -105 52 -145 60
-320 60 -114 0 -177 -4 -204 -14 l-39 -13 49 -42 c67 -56 121 -117 166 -184
l37 -56 -37 -32 c-20 -18 -40 -33 -43 -34 -3 0 -23 26 -44 58 -43 64 -165 188
-212 215 l-31 17 -50 -39 c-64 -51 -127 -146 -154 -235 -18 -56 -23 -95 -22
-186 0 -174 34 -268 131 -364 82 -80 205 -130 466 -187 314 -69 457 -128 564
-235 94 -93 133 -201 133 -374 0 -177 -49 -301 -164 -416 -134 -134 -304 -195
-551 -197 -142 -2 -241 12 -353 50 l-74 25 -91 -25 c-51 -14 -113 -28 -139
-32 l-48 -6 0 50 c0 55 -4 52 85 66 77 12 77 11 0 88 -55 55 -82 92 -114 158
-43 89 -91 256 -91 315 0 34 0 34 48 34 l47 0 19 -82 c39 -177 123 -332 219
-407 30 -22 60 -41 67 -41 25 0 146 90 206 152 34 35 78 90 99 123 21 33 39
62 41 64 2 2 22 -8 45 -23 46 -31 46 -31 -5 -109 -46 -74 -145 -177 -212 -223
l-56 -39 49 -12 c150 -38 336 -39 479 -3 275 71 427 295 386 571 -35 240 -171
337 -607 429 -187 39 -345 91 -426 139 -75 44 -165 138 -202 212 -54 108 -72
305 -42 451 26 123 70 202 168 304 27 29 45 54 40 57 -14 8 -136 35 -190 42
l-53 7 0 49 c0 47 1 49 29 49 16 0 62 -6 103 -14z m-454 -66 l-3 -51 -80 -32
c-195 -79 -369 -246 -474 -455 -47 -92 -98 -252 -117 -367 -23 -134 -24 -422
-1 -557 69 -403 286 -667 618 -751 l54 -14 3 -52 3 -52 -38 7 c-21 4 -80 21
-131 40 -338 119 -555 417 -618 846 -22 154 -15 481 14 613 55 250 153 444
306 604 111 115 214 185 359 242 104 41 109 40 105 -21z m-357 -2537 c11 -15
11 -16 -1 -5 -20 17 -70 15 -92 -5 -23 -21 -25 -95 -2 -117 18 -19 65 -21 82
-4 8 8 12 8 12 1 0 -28 -72 -31 -100 -3 -28 28 -27 96 2 127 26 28 79 31 99 6z
m154 -63 l54 0 4 43 c2 23 4 2 4 -48 0 -49 -2 -71 -4 -47 l-4 42 -54 0 -54 0
-4 -42 c-2 -24 -4 -2 -4 47 0 50 2 71 4 48 l4 -43 54 0z m243 68 c21 -21 14
-57 -13 -70 -26 -12 -30 -18 -17 -34 4 -5 0 -2 -8 7 -9 9 -22 18 -30 22 -8 3
-1 6 15 6 41 2 57 14 53 42 -2 19 -11 25 -43 30 l-40 6 36 2 c19 0 40 -4 47
-11z m109 -121 c-2 -23 -3 -1 -3 48 0 50 1 68 3 42 2 -26 2 -67 0 -90z m191
121 c7 -7 12 -16 12 -22 0 -5 -6 -2 -13 8 -10 14 -23 17 -45 14 -17 -2 -29 -1
-26 4 8 12 58 10 72 -4z m180 5 c-28 -4 -28 -5 -30 -86 l-2 -82 -3 82 c-4 80
-4 82 -31 86 -15 2 0 4 33 4 33 0 48 -2 33 -4z m232 -15 c27 -29 27 -87 -1
-122 -41 -53 -129 -18 -129 51 0 23 25 83 36 83 2 0 -2 -13 -11 -30 -32 -62
-8 -120 50 -120 42 0 65 29 65 81 0 42 -21 65 -65 72 l-30 4 32 2 c22 1 39 -6
53 -21z m214 6 c26 -26 14 -75 -18 -74 -6 0 -3 5 7 11 39 23 13 69 -40 69 -32
0 -33 -1 -33 -40 0 -37 2 -40 28 -41 l27 -2 -27 -4 c-23 -4 -27 -10 -31 -41
-2 -20 -4 2 -5 51 l-2 87 39 0 c23 0 46 -7 55 -16z m161 -64 l54 0 4 43 c2 23
4 2 4 -48 0 -49 -2 -71 -4 -47 l-4 42 -54 0 -54 0 -4 -42 c-2 -24 -4 -2 -4 47
0 50 2 71 4 48 l4 -43 54 0z m218 73 c-42 -4 -43 -5 -43 -39 0 -33 1 -34 43
-36 l42 -1 -42 -4 c-41 -4 -43 -5 -43 -38 0 -33 2 -34 43 -38 l42 -4 -47 -1
-48 -2 0 85 0 85 48 -2 47 -1 -42 -4z m215 -5 c7 -7 12 -21 11 -32 -1 -18 -2
-17 -8 4 -5 20 -14 26 -44 28 -36 3 -37 3 -37 -32 0 -32 3 -36 28 -37 15 0 21
-3 15 -6 -16 -6 23 -62 52 -73 16 -7 17 -9 3 -9 -9 -1 -31 17 -48 39 -17 22
-36 40 -40 40 -5 0 -11 -19 -13 -42 -2 -24 -4 -4 -5 45 l-2 87 38 0 c21 0 43
-5 50 -12z m-1266 -68 c16 -6 18 -9 6 -9 -21 -1 -48 26 -47 47 0 12 3 10 9 -6
5 -12 20 -27 32 -32z m56 -39 c5 -30 -15 -51 -46 -51 -26 0 -62 25 -62 44 0 6
7 0 16 -12 22 -32 78 -28 82 7 2 13 -2 28 -10 33 -10 8 -10 9 2 5 8 -2 16 -14
18 -26z m-289 -50 c-6 -2 -18 4 -27 13 -15 15 -15 15 10 4 15 -7 23 -15 17
-17z m-108 -178 c11 -15 11 -16 -1 -5 -18 15 -52 16 -68 0 -8 -8 -12 -9 -12
-1 0 26 62 30 81 6z m227 -70 c-1 -49 -3 -69 -5 -45 l-4 42 -57 2 -57 2 58 3
57 4 0 39 c0 22 2 40 5 40 3 0 4 -39 3 -87z m155 80 c-42 -4 -43 -5 -43 -39 0
-33 1 -34 43 -36 l42 -1 -42 -4 c-41 -4 -43 -5 -43 -38 0 -33 2 -34 43 -38
l42 -4 -47 -1 -48 -2 0 85 0 85 48 -2 47 -1 -42 -4z m215 -5 c21 -21 14 -57
-13 -70 -26 -12 -30 -18 -17 -34 4 -5 0 -2 -8 7 -9 9 -22 18 -30 22 -8 3 -1 6
15 6 41 2 57 14 53 42 -2 19 -11 25 -43 30 l-40 6 36 2 c19 0 40 -4 47 -11z
m190 0 c7 -7 12 -21 11 -32 -1 -18 -2 -17 -8 4 -5 20 -14 26 -44 28 -36 3 -37
3 -37 -32 0 -32 3 -36 28 -37 15 0 21 -3 15 -6 -16 -6 23 -62 52 -73 16 -7 17
-9 3 -9 -9 -1 -31 17 -48 39 -17 22 -36 40 -40 40 -5 0 -11 -19 -13 -42 -2
-24 -4 -4 -5 45 l-2 87 38 0 c21 0 43 -5 50 -12z m231 -14 c12 -15 21 -40 20
-58 -1 -30 -1 -30 -8 6 -10 50 -27 68 -66 68 -40 0 -57 -19 -66 -73 l-6 -42
-2 36 c-2 51 30 89 74 89 24 0 39 -7 54 -26z m159 19 l-38 -4 0 -74 0 -74 38
-4 37 -4 -42 -1 -43 -2 0 85 0 85 43 -2 42 -1 -37 -4z m72 -18 c19 -22 8 -25
-12 -3 -10 10 -14 18 -9 18 5 0 14 -7 21 -15z m-1291 -64 c-6 -2 -18 4 -27 13
-15 15 -15 15 10 4 15 -7 23 -15 17 -17z m1308 -8 c-3 -10 -5 -4 -5 12 0 17 2
24 5 18 2 -7 2 -21 0 -30z m-1262 -3 c3 -6 -1 -7 -9 -4 -18 7 -21 14 -7 14 6
0 13 -4 16 -10z m-44 -60 c17 0 34 8 43 22 9 12 16 17 16 11 0 -6 -7 -19 -16
-28 -24 -24 -73 -16 -92 15 l-14 25 17 -22 c11 -14 28 -23 46 -23z m1055 12
c-17 -16 -18 -16 -5 5 7 12 15 20 18 17 3 -2 -3 -12 -13 -22z m234 3 c-7 -8
-16 -15 -21 -15 -5 0 -1 8 9 18 20 22 31 19 12 -3z m-284 -16 c18 -1 22 -3 11
-6 -28 -7 -64 5 -71 24 -6 16 -6 16 12 0 10 -9 32 -18 48 -18z m-347 -8 c-6
-2 -18 4 -27 13 -15 15 -15 15 10 4 15 -7 23 -15 17 -17z"></path>
</g>
</svg><style>@media (prefers-color-scheme: light) { :root { filter: none; } }
</style></svg>