<?xml version="1.0" standalone="no"?>
<!DOCTYPE svg PUBLIC "-//W3C//DTD SVG 20010904//EN"
 "http://www.w3.org/TR/2001/REC-SVG-20010904/DTD/svg10.dtd">
<svg version="1.0" xmlns="http://www.w3.org/2000/svg"
 width="1920.000000pt" height="1920.000000pt" viewBox="0 0 1920.000000 1920.000000"
 preserveAspectRatio="xMidYMid meet">
<metadata>
Created by potrace 1.14, written by Peter Selinger 2001-2017
</metadata>
<g transform="translate(0.000000,1920.000000) scale(0.100000,-0.100000)"
fill="#000000" stroke="none">
<path d="M9760 10282 c-49 -6 -100 -35 -123 -71 -21 -34 -22 -48 -24 -226 -2
-271 -11 -255 247 -411 80 -48 154 -92 165 -99 11 -6 42 -24 68 -40 l48 -30
-3 -85 -3 -85 -110 0 -110 0 0 98 c0 63 -4 100 -12 105 -9 5 -225 8 -280 3
-15 -1 -14 -316 1 -351 24 -54 49 -80 90 -91 55 -16 554 -18 613 -3 100 25
113 62 113 311 0 212 -7 245 -58 290 -22 19 -187 123 -227 143 -46 23 -227
135 -232 144 -4 6 -8 43 -8 82 l-1 71 111 -1 110 -1 3 -93 c2 -63 7 -92 15
-93 61 -6 256 -3 270 4 16 7 17 22 15 165 -4 180 -14 210 -82 245 -36 19 -58
21 -305 21 -146 1 -277 0 -291 -2z"/>
<path d="M8868 10268 c-55 -10 -88 -34 -112 -83 -18 -36 -19 -67 -19 -566 0
-498 2 -530 19 -560 26 -44 61 -67 114 -77 77 -13 591 -7 620 8 51 26 79 62
86 109 9 57 12 339 3 366 -5 18 -16 19 -143 20 -76 0 -143 -3 -149 -7 -8 -5
-12 -47 -12 -120 l0 -113 -112 -1 c-96 0 -113 2 -114 15 0 9 -1 180 -1 381
l-1 365 114 0 114 0 0 -103 c0 -68 5 -106 12 -110 19 -12 284 -7 291 5 13 20
5 358 -8 384 -21 41 -51 68 -89 80 -41 14 -540 19 -613 7z"/>
</g>
</svg>
